<?xml version="1.0" standalone="no"?>
<!DOCTYPE svg PUBLIC "-//W3C//DTD SVG 20010904//EN"
 "http://www.w3.org/TR/2001/REC-SVG-20010904/DTD/svg10.dtd">
<svg version="1.0" xmlns="http://www.w3.org/2000/svg"
 width="500.000000pt" height="500.000000pt" viewBox="0 0 500.000000 500.000000"
 preserveAspectRatio="xMidYMid meet">
<metadata>
Created by potrace 1.11, written by Peter Selinger 2001-2013
</metadata>
<g transform="translate(0.000000,500.000000) scale(0.100000,-0.100000)"
fill="#000000" stroke="none">
<path d="M2507 4732 c-5 -7 -31 -24 -58 -37 -60 -31 -61 -41 -14 -158 19 -48
35 -89 35 -93 0 -3 -15 7 -32 22 -18 15 -57 38 -86 51 -29 13 -77 39 -105 58
-28 19 -59 35 -67 35 -8 -1 -38 -22 -67 -48 l-52 -48 56 -17 c44 -14 173 -82
173 -92 0 -1 -28 5 -62 12 -135 30 -247 18 -286 -30 -11 -12 0 -15 70 -19 51
-3 100 -12 127 -24 l43 -19 -48 -1 c-54 0 -182 -25 -255 -49 -42 -14 -88 -49
-78 -59 2 -2 42 9 89 24 85 29 181 38 225 21 23 -9 37 -5 -147 -41 -60 -11
-118 -25 -131 -31 -25 -11 -72 -94 -82 -142 -4 -19 -22 -38 -60 -63 l-54 -36
19 -26 c11 -13 20 -33 20 -43 0 -11 2 -19 4 -19 2 0 36 15 77 34 81 36 122 49
113 35 -3 -5 -24 -19 -47 -30 -23 -12 -50 -28 -59 -37 -21 -17 -23 -64 -7
-112 l12 -32 16 48 c11 34 26 55 50 71 41 28 56 29 46 6 -15 -36 -11 -58 13
-61 13 -2 22 -7 20 -10 -43 -81 -68 -147 -74 -189 -4 -32 -3 -53 3 -53 5 0 32
28 60 63 29 34 72 82 96 106 42 40 46 42 56 24 5 -11 7 -30 4 -43 -7 -28 18
-50 57 -50 l27 0 -18 -52 c-21 -60 -24 -130 -9 -175 9 -24 17 -30 38 -30 15 0
35 -3 45 -7 14 -7 21 1 41 45 12 30 31 85 41 122 22 83 35 94 35 29 0 -52 35
-199 52 -219 15 -19 69 -16 104 6 l31 19 -34 69 c-27 54 -35 83 -36 133 -2 52
1 65 14 68 13 2 17 -10 22 -66 6 -71 32 -142 52 -142 18 0 42 30 64 80 l20 45
-6 -57 c-15 -143 45 -151 120 -17 19 34 36 55 39 47 13 -35 -71 -891 -102
-1048 -27 -135 -109 -297 -223 -443 -35 -45 -37 -43 -62 53 -9 36 -32 103 -50
150 -18 47 -45 130 -60 185 -14 55 -33 114 -41 132 -8 17 -23 72 -33 121 -13
62 -26 97 -41 112 -35 35 -70 123 -86 213 -8 45 -21 105 -29 132 -19 68 -84
166 -153 233 -108 106 -407 281 -434 254 -21 -21 -17 -252 5 -332 24 -89 104
-250 166 -338 69 -96 176 -209 221 -232 69 -35 129 -121 174 -249 15 -41 36
-81 46 -88 32 -23 77 -95 93 -151 15 -50 15 -52 -2 -42 -30 15 -81 79 -81 100
0 11 -6 20 -14 20 -8 0 -36 24 -63 54 -28 31 -64 58 -84 65 -49 16 -76 47 -88
101 -8 36 -21 56 -69 100 -160 147 -366 216 -577 192 -55 -6 -116 -16 -137
-22 -36 -10 -36 -11 -26 -48 18 -66 81 -174 136 -234 106 -114 296 -212 445
-228 39 -5 76 -15 86 -24 10 -9 31 -16 46 -16 22 0 41 -13 80 -54 28 -29 62
-57 75 -61 53 -15 113 -59 138 -99 15 -23 64 -77 109 -119 70 -66 88 -77 118
-77 19 0 69 -12 112 -26 87 -29 191 -36 239 -16 23 10 38 29 59 73 27 55 32
60 80 75 48 16 52 19 63 61 16 58 60 103 101 103 29 0 31 2 31 40 0 56 40 99
98 107 36 5 45 11 56 38 21 50 64 78 109 72 31 -4 42 -1 66 23 40 41 85 49
271 49 104 0 197 6 252 16 95 16 198 51 198 66 0 15 -117 86 -198 120 -127 53
-215 71 -342 72 -138 1 -212 -16 -322 -73 -43 -22 -84 -40 -92 -40 -8 0 -24
-15 -35 -33 -11 -19 -47 -59 -78 -90 -57 -55 -145 -150 -165 -178 -7 -10 -8
-9 -3 6 18 53 67 287 85 402 19 124 38 325 43 448 1 44 6 59 16 57 7 -1 19 3
27 9 8 7 29 9 49 6 33 -5 35 -4 35 23 0 33 -23 144 -44 213 -8 26 -11 47 -7
47 4 0 16 -28 26 -62 29 -98 90 -212 136 -253 l41 -37 21 20 c12 11 34 24 50
27 15 4 27 9 27 11 0 2 -16 56 -35 120 -19 63 -35 120 -35 127 0 6 13 -4 28
-23 20 -23 34 -31 45 -27 26 10 21 58 -18 180 -20 60 -34 114 -33 119 5 13
154 -127 232 -217 56 -66 63 -71 120 -82 33 -7 62 -11 64 -8 12 12 -75 226
-98 240 -27 16 -5 22 33 9 23 -8 70 -18 105 -21 51 -5 62 -3 62 9 0 9 -14 21
-30 28 -57 24 -80 48 -74 79 3 16 1 39 -6 51 -11 20 -10 21 12 15 12 -4 28
-14 33 -23 28 -43 45 -52 103 -52 64 0 131 -26 154 -59 15 -21 15 -21 22 11 3
18 18 45 33 60 25 26 26 30 12 54 -8 15 -32 38 -54 52 -22 14 -63 48 -92 75
-49 48 -51 51 -37 73 24 36 14 66 -31 91 l-40 23 50 -1 c28 0 61 -6 75 -14 36
-21 50 -18 50 9 0 60 -45 122 -115 159 -33 17 -64 22 -175 27 -82 3 -134 9
-133 15 1 11 122 50 186 60 37 6 38 7 22 25 -20 22 -100 42 -136 34 -13 -3
-44 -12 -69 -19 -25 -7 -69 -16 -97 -19 -50 -5 -53 -4 -53 18 0 30 -24 50 -50
43 -31 -8 -24 10 24 61 25 27 49 60 55 74 11 28 7 39 -56 147 -7 11 -87 -58
-162 -139 -73 -80 -86 -90 -98 -77 -19 18 -3 47 39 71 36 22 36 36 -1 36 -16
0 -31 6 -34 14 -6 16 -67 36 -109 36 -38 0 -59 -37 -66 -115 -4 -61 -6 -65
-29 -65 -24 0 -25 1 -18 53 4 28 11 59 16 68 7 14 0 17 -44 22 -29 3 -56 1
-60 -3 -5 -4 -11 -34 -14 -67 l-5 -60 -24 24 c-21 21 -33 24 -82 22 -53 -3
-58 -1 -69 23 -7 14 -16 56 -21 94 -4 41 -10 64 -15 56z m-288 -2593 c24 -31
56 -108 47 -116 -2 -3 -10 6 -16 19 -7 12 -23 34 -36 48 -23 26 -43 80 -28 79
5 0 20 -14 33 -30z"/>
<path d="M150 1015 l0 -875 2355 0 2355 0 0 875 0 875 -1028 0 -1029 0 -24
-52 c-13 -29 -39 -70 -58 -90 -23 -27 -29 -39 -20 -43 8 -2 390 -68 849 -145
459 -77 842 -143 851 -146 20 -6 349 -551 349 -577 0 -10 -5 -27 -10 -38 -14
-25 -71 -26 -92 -1 -8 9 -72 113 -142 230 -71 117 -129 212 -131 210 -1 -2
-64 -102 -140 -223 -75 -121 -144 -226 -153 -232 -37 -29 -92 -2 -92 46 0 12
65 126 145 253 80 127 144 232 143 233 -7 6 -997 170 -990 164 4 -4 45 -19 92
-34 47 -15 91 -32 97 -38 7 -5 81 -127 165 -271 83 -143 223 -375 310 -515 87
-140 158 -259 158 -265 0 -29 -32 -56 -65 -56 -34 0 -35 3 -213 288 -98 158
-234 385 -303 504 l-124 216 -415 141 c-228 78 -418 141 -422 141 -5 0 -8 -48
-8 -107 l0 -108 156 -260 c162 -270 384 -711 384 -764 0 -15 -5 -32 -12 -39
-16 -16 -73 -15 -86 1 -5 6 -48 92 -95 190 -47 98 -88 178 -92 178 -4 0 -45
-80 -92 -178 -47 -98 -90 -184 -95 -190 -13 -16 -70 -17 -86 -1 -25 25 -9 71
93 286 58 121 105 226 105 234 0 7 -54 102 -119 212 l-119 198 -70 -118 c-38
-66 -89 -153 -113 -194 -24 -41 -107 -199 -184 -350 -138 -271 -140 -275 -173
-278 -42 -4 -62 12 -62 49 0 43 209 454 386 760 l154 265 0 107 c0 59 -3 107
-6 107 -7 0 -777 -260 -781 -263 -1 -2 61 -108 137 -236 140 -233 157 -274
126 -300 -8 -7 -29 -11 -47 -9 -32 3 -40 14 -170 231 l-137 229 -70 -119
c-106 -181 -162 -279 -162 -286 0 -3 70 -107 155 -231 158 -229 176 -266 141
-295 -8 -7 -29 -11 -47 -9 -30 3 -43 19 -173 208 -78 112 -144 204 -148 205
-4 0 -65 -92 -135 -205 -121 -194 -130 -205 -161 -208 -19 -2 -40 2 -48 9 -33
27 -16 67 128 297 79 125 218 355 309 512 l166 285 99 37 c55 20 95 37 89 38
-5 0 -242 -39 -526 -86 l-516 -87 -144 -240 c-79 -132 -152 -251 -162 -263
-33 -42 -107 -21 -107 30 0 21 303 531 334 562 18 19 124 39 866 164 465 78
852 144 860 146 25 9 -16 26 -119 50 -91 22 -96 24 -146 78 l-51 56 -922 0
-922 0 0 -875z"/>
</g>
</svg>
